;Layer: Drill PTH
;EasyEDA v6.1.30, Mon, 13 May 2019 14:05:24 GMT
;ec786ea291e64042a76a9efa09ec0a6e,e7f1f9e1ee6f4799bc2d14f0a93ba244,10
;Gerber Generator version 0.2
M48
INCH,LZ,00.0000
;Holesize 1 = 0.030 INCH
T01C0.030
;Holesize 2 = 0.035 INCH
T02C0.035
;Holesize 3 = 0.035 INCH
T03C0.035
;Holesize 4 = 0.036 INCH
T04C0.036
;Holesize 5 = 0.039 INCH
T05C0.039
;Holesize 6 = 0.044 INCH
T06C0.044
;Holesize 7 = 0.056 INCH
T07C0.056
%
G05
G90
T01
X+031896Y+007450
X+030896Y+007450
X+032904Y+007450
X+031746Y+015150
X+030746Y+015150
X+032753Y+015150
T02
X+026550Y+007400
X+025550Y+007400
X+024550Y+007400
X+023550Y+007400
X+022550Y+007400
X+021550Y+007400
X+020550Y+007400
X+019550Y+007400
X+018550Y+007400
X+017550Y+007400
X+016550Y+007400
X+015550Y+007400
X+014550Y+007400
X+013550Y+007400
X+012550Y+007400
X+026600Y+018750
X+025600Y+018750
X+024600Y+018750
X+023600Y+018750
X+022600Y+018750
X+021600Y+018750
X+020600Y+018750
X+019600Y+018750
X+018600Y+018750
X+017600Y+018750
X+016600Y+018750
X+015600Y+018750
X+014600Y+018750
X+013600Y+018750
X+012600Y+018750
X+001750Y+001650
X+001750Y+002650
X+001750Y+003650
X+001750Y+004650
X+001750Y+005650
X+001750Y+006650
X+001750Y+007650
X+001750Y+008650
X+001750Y+009650
X+001750Y+010650
X+010350Y+010700
X+010350Y+009700
X+010350Y+008700
X+010350Y+007700
X+010350Y+006700
X+010350Y+005700
X+010350Y+004700
X+010350Y+003700
X+010350Y+002700
X+010350Y+001700
X+010950Y+018800
X+009950Y+018800
X+010950Y+019800
X+009950Y+019800
X+010950Y+020800
X+009950Y+020800
X+010950Y+021800
X+009950Y+021800
X+001400Y+018600
X+002400Y+018600
X+001400Y+017600
X+002400Y+017600
X+003800Y+021400
X+004800Y+021400
X+003800Y+020400
X+004800Y+020400
X+001400Y+021400
X+002400Y+021400
X+001400Y+020400
X+002400Y+020400
X+023600Y+020550
X+024600Y+020550
X+025600Y+020550
X+026600Y+020550
X+006200Y+021400
X+007200Y+021400
X+006200Y+020400
X+007200Y+020400
X+026550Y+006400
X+025550Y+006400
X+024550Y+006400
X+023550Y+006400
X+022550Y+006400
X+021550Y+006400
X+020550Y+006400
X+019550Y+006400
X+018550Y+006400
X+017550Y+006400
X+016550Y+006400
X+015550Y+006400
X+014550Y+006400
X+013550Y+006400
X+012550Y+006400
X+026550Y+005450
X+025550Y+005450
X+024550Y+005450
X+023550Y+005450
X+022550Y+005450
X+021550Y+005450
X+020550Y+005450
X+019550Y+005450
X+018550Y+005450
X+017550Y+005450
X+016550Y+005450
X+015550Y+005450
X+014550Y+005450
X+013550Y+005450
X+012550Y+005450
X+026550Y+004450
X+025550Y+004450
X+024550Y+004450
X+023550Y+004450
X+022550Y+004450
X+021550Y+004450
X+020550Y+004450
X+019550Y+004450
X+018550Y+004450
X+017550Y+004450
X+016550Y+004450
X+015550Y+004450
X+014550Y+004450
X+013550Y+004450
X+012550Y+004450
X+026550Y+003450
X+025550Y+003450
X+024550Y+003450
X+023550Y+003450
X+022550Y+003450
X+021550Y+003450
X+020550Y+003450
X+019550Y+003450
X+018550Y+003450
X+017550Y+003450
X+016550Y+003450
X+015550Y+003450
X+014550Y+003450
X+013550Y+003450
X+012550Y+003450
X+026550Y+002450
X+025550Y+002450
X+024550Y+002450
X+023550Y+002450
X+022550Y+002450
X+021550Y+002450
X+020550Y+002450
X+019550Y+002450
X+018550Y+002450
X+017550Y+002450
X+016550Y+002450
X+015550Y+002450
X+014550Y+002450
X+013550Y+002450
X+012550Y+002450
X+026550Y+001450
X+025550Y+001450
X+024550Y+001450
X+023550Y+001450
X+022550Y+001450
X+021550Y+001450
X+020550Y+001450
X+019550Y+001450
X+018550Y+001450
X+017550Y+001450
X+016550Y+001450
X+015550Y+001450
X+014550Y+001450
X+013550Y+001450
X+012550Y+001450
T03
X+015150Y+020350
X+012150Y+020350
X+015150Y+021300
X+012150Y+021300
T04
X+026600Y+016400
X+025600Y+016400
X+024600Y+016400
X+023600Y+016400
X+022600Y+016400
X+021600Y+016400
X+020600Y+016400
X+019600Y+016400
X+018600Y+016400
X+017600Y+016400
X+016600Y+016400
X+015600Y+016400
X+014600Y+016400
X+013600Y+016400
X+012600Y+016400
X+026600Y+010400
X+025600Y+010400
X+024600Y+010400
X+023600Y+010400
X+022600Y+010400
X+021600Y+010400
X+020600Y+010400
X+019600Y+010400
X+018600Y+010400
X+017600Y+010400
X+016600Y+010400
X+015600Y+010400
X+014600Y+010400
X+013600Y+010400
X+012600Y+010400
X+021650Y+020550
X+020650Y+020550
X+019650Y+020550
X+018650Y+020550
X+017650Y+020550
X+016650Y+020550
T05
X+030350Y+009700
X+031350Y+009700
X+032350Y+009700
X+033350Y+009700
X+033350Y+012700
X+032350Y+012700
X+031350Y+012700
X+030350Y+012700
T06
X+031800Y+019650
X+031950Y+003050
T07
X+033789Y+021640
X+029810Y+017659
X+033789Y+017659
X+029810Y+021640
X+033939Y+005040
X+029960Y+001059
X+033939Y+001059
X+029960Y+005040
M30
