G04 Layer: TopLayer*
G04 EasyEDA v6.1.30, Mon, 13 May 2019 14:05:24 GMT*
G04 ec786ea291e64042a76a9efa09ec0a6e,e7f1f9e1ee6f4799bc2d14f0a93ba244,10*
G04 Gerber Generator version 0.2*
G04 Scale: 100 percent, Rotated: No, Reflected: No *
G04 Dimensions in inches *
G04 leading zeros omitted , absolute positions ,2 integer and 4 decimal *
%FSLAX24Y24*%
%MOIN*%
G90*
G70D02*

%ADD10C,0.010000*%
%ADD11C,0.025000*%
%ADD12C,0.050000*%
%ADD13R,0.055118X0.055118*%
%ADD14R,0.045670X0.057087*%
%ADD15R,0.150000X0.016000*%
%ADD16R,0.051181X0.011800*%
%ADD17C,0.062000*%
%ADD18R,0.062000X0.062000*%
%ADD20C,0.070000*%
%ADD21C,0.063500*%
%ADD22C,0.075500*%
%ADD23C,0.060000*%
%ADD24C,0.074000*%
%ADD25C,0.075000*%

%LPD*%
G54D10*
G01X7100Y6328D02*
G01X9827Y6328D01*
G01X10200Y6700D01*
G01X10350Y6700D01*
G01X7100Y6071D02*
G01X9827Y6071D01*
G01X10200Y5700D01*
G01X10350Y5700D01*
G01X7100Y6583D02*
G01X9233Y6583D01*
G01X10350Y7700D01*
G01X7100Y5816D02*
G01X9233Y5816D01*
G01X10350Y4700D01*
G01X7100Y5560D02*
G01X8489Y5560D01*
G01X10350Y3700D01*
G01X7100Y5303D02*
G01X7846Y5303D01*
G01X10450Y2700D01*
G01X10350Y2700D01*
G01X7100Y5048D02*
G01X10350Y1798D01*
G01X10350Y1700D01*
G01X7100Y6839D02*
G01X8489Y6839D01*
G01X10350Y8700D01*
G01X7100Y7096D02*
G01X7846Y7096D01*
G01X10450Y9700D01*
G01X10350Y9700D01*
G01X7100Y7351D02*
G01X7100Y7450D01*
G01X10350Y10700D01*
G01X5100Y6328D02*
G01X2271Y6328D01*
G01X1950Y6650D01*
G01X1750Y6650D01*
G01X5100Y6071D02*
G01X2321Y6071D01*
G01X1900Y5650D01*
G01X1750Y5650D01*
G01X5100Y6584D02*
G01X2865Y6584D01*
G01X1800Y7650D01*
G01X1750Y7650D01*
G01X5100Y5816D02*
G01X2916Y5816D01*
G01X1750Y4650D01*
G01X5100Y5560D02*
G01X3660Y5560D01*
G01X1750Y3650D01*
G01X5100Y6839D02*
G01X3560Y6839D01*
G01X1750Y8650D01*
G01X5100Y7100D02*
G01X4300Y7100D01*
G01X1750Y9650D01*
G01X5100Y5303D02*
G01X4303Y5303D01*
G01X1650Y2650D01*
G01X1750Y2650D01*
G01X1750Y1650D02*
G01X5100Y5000D01*
G01X5100Y5048D01*
G01X5100Y7351D02*
G01X1801Y10650D01*
G01X1750Y10650D01*
G01X12600Y10400D02*
G01X12600Y7550D01*
G01X13600Y10400D02*
G01X13600Y7550D01*
G01X14600Y10400D02*
G01X14600Y7550D01*
G01X15600Y10400D02*
G01X15600Y7550D01*
G01X16600Y10400D02*
G01X16600Y7550D01*
G01X17600Y10400D02*
G01X17600Y7550D01*
G01X18600Y10400D02*
G01X18600Y7550D01*
G01X19600Y10400D02*
G01X19600Y7550D01*
G01X20600Y10400D02*
G01X20600Y7550D01*
G01X21600Y10400D02*
G01X21600Y7550D01*
G01X22600Y10400D02*
G01X22600Y7550D01*
G01X23600Y10350D02*
G01X23600Y7550D01*
G01X24600Y10400D02*
G01X24600Y7550D01*
G01X25600Y10400D02*
G01X25600Y7550D01*
G54D11*
G01X26600Y10400D02*
G01X26600Y7550D01*
G54D10*
G01X26600Y16150D02*
G01X26600Y19850D01*
G01X25600Y16150D02*
G01X25600Y19850D01*
G01X24600Y18750D02*
G01X24600Y16150D01*
G01X23600Y19850D02*
G01X23600Y16150D01*
G01X22600Y18750D02*
G01X22600Y16150D01*
G01X21600Y18750D02*
G01X21600Y16150D01*
G01X20600Y18750D02*
G01X20600Y16150D01*
G01X19600Y18750D02*
G01X19600Y16150D01*
G01X18600Y18750D02*
G01X18600Y16150D01*
G01X17600Y18750D02*
G01X17600Y16150D01*
G01X16600Y18750D02*
G01X16600Y16150D01*
G01X15600Y18750D02*
G01X15600Y16150D01*
G01X14600Y18750D02*
G01X14600Y16150D01*
G01X6600Y17850D02*
G01X6650Y18800D01*
G01X6650Y19330D01*
G01X6650Y19350D01*
G01X6890Y19550D01*
G01X8740Y19550D01*
G01X9950Y20800D01*
G01X9950Y20800D02*
G01X10950Y20800D01*
G01X24600Y20550D02*
G01X25150Y21100D01*
G01X27177Y21100D01*
G01X27850Y20494D01*
G01X27850Y15350D01*
G01X30350Y12850D01*
G01X9083Y22400D02*
G01X9800Y22400D01*
G01X23200Y22350D01*
G01X24600Y20550D01*
G01X31846Y7500D02*
G01X31846Y9353D01*
G01X31350Y9850D01*
G01X30350Y9850D02*
G01X30350Y7996D01*
G01X30846Y7500D01*
G01X31950Y3050D02*
G01X31950Y6600D01*
G01X32400Y7050D01*
G01X32400Y9850D01*
G01X32350Y9850D01*
G01X31350Y12850D02*
G01X31350Y14596D01*
G01X30796Y15150D01*
G01X31796Y15150D02*
G01X31796Y13403D01*
G01X32350Y12850D01*
G01X33350Y12850D02*
G01X33350Y13400D01*
G01X32250Y14500D01*
G01X32250Y16100D01*
G01X31750Y16600D01*
G01X31750Y19700D01*
G01X31800Y19750D01*
G01X9950Y21800D02*
G01X10950Y21800D01*
G01X9950Y19800D02*
G01X10950Y19800D01*
G01X9950Y18800D02*
G01X10950Y18800D01*
G01X15150Y21350D02*
G01X15150Y20300D01*
G01X12250Y21350D02*
G01X12150Y21300D01*
G01X10950Y19800D01*
G01X12150Y20350D02*
G01X10950Y18800D01*
G01X10950Y18800D01*
G01X10950Y20800D02*
G01X10950Y20915D01*
G01X11860Y21850D01*
G01X10950Y21800D02*
G01X11050Y21800D01*
G01X11400Y22150D01*
G01X11860Y21850D02*
G01X12050Y21850D01*
G01X14750Y21850D01*
G01X15250Y21350D01*
G01X11396Y22150D02*
G01X20100Y22150D01*
G01X21450Y20800D01*
G01X21522Y20800D01*
G01X20522Y20800D02*
G01X20650Y20800D01*
G01X20650Y20950D01*
G01X19800Y21800D01*
G01X15600Y21850D01*
G01X15150Y21300D01*
G01X16347Y15750D02*
G01X17750Y15750D01*
G01X18100Y16100D01*
G01X18100Y19000D01*
G01X19600Y20500D01*
G01X19522Y20500D01*
G01X19522Y20800D01*
G01X14600Y16150D02*
G01X14600Y16400D01*
G01X15250Y15750D01*
G01X16450Y15750D01*
G01X16450Y15750D01*
G01X16600Y15750D01*
G01X9950Y19800D02*
G01X9700Y19800D01*
G01X9450Y19550D01*
G01X9450Y18450D01*
G01X9846Y18050D01*
G01X10600Y18050D01*
G01X11170Y17480D01*
G01X11170Y16030D01*
G01X11450Y15750D01*
G01X16600Y20800D02*
G01X16600Y20450D01*
G01X17500Y21350D01*
G01X19727Y21350D01*
G01X20127Y20953D01*
G01X20127Y12421D01*
G01X20834Y11715D01*
G01X22500Y10900D02*
G01X22606Y11003D01*
G01X23077Y11650D01*
G01X28639Y11650D01*
G01X30350Y9850D01*
G01X20700Y11850D02*
G01X21097Y11450D01*
G01X21056Y7759D01*
G01X21056Y6105D01*
G01X20850Y5900D01*
G01X14300Y5900D01*
G01X14100Y6200D01*
G01X14100Y10650D01*
G01X13850Y10900D01*
G01X13100Y10900D01*
G01X12600Y10400D01*
G01X20600Y10150D02*
G01X20600Y10250D01*
G01X19850Y10992D01*
G01X19850Y14950D01*
G01X19300Y15500D01*
G01X12200Y15500D01*
G01X11500Y16200D01*
G01X11500Y18300D01*
G01X10950Y18800D01*
G01X19600Y10150D02*
G01X19600Y14800D01*
G01X19200Y15200D01*
G01X12000Y15200D01*
G01X11169Y16032D01*
G01X12693Y15200D02*
G01X12578Y15200D01*
G01X12000Y15200D01*
G01X11564Y15636D01*
G54D11*
G01X1400Y20400D02*
G01X1400Y20700D01*
G01X1400Y20978D01*
G01X1400Y21400D01*
G01X550Y22250D02*
G01X2400Y20400D01*
G01X2400Y21400D02*
G01X1400Y21400D01*
G54D10*
G01X5100Y21400D02*
G01X5100Y21400D01*
G01X5100Y21400D01*
G01X6250Y22400D01*
G01X9800Y22400D01*
G01X26600Y20750D02*
G01X26600Y19800D01*
G01X25600Y20750D02*
G01X25600Y19800D01*
G01X23600Y20750D02*
G01X23600Y19800D01*
G01X2750Y15950D02*
G01X2750Y15250D01*
G01X3550Y15950D02*
G01X3550Y15150D01*
G01X7200Y20500D02*
G01X7200Y21273D01*
G01X6150Y21400D02*
G01X7150Y21400D01*
G01X5100Y20400D02*
G01X4800Y20400D01*
G01X4800Y21238D01*
G01X4638Y21238D01*
G01X3800Y20400D01*
G01X4100Y20400D01*
G01X4100Y21400D02*
G01X5100Y21400D01*
G01X13600Y16400D02*
G01X13600Y18750D01*
G01X12600Y16400D02*
G01X12600Y18750D01*
G01X12600Y18750D02*
G01X12550Y18750D01*
G01X13550Y19750D01*
G01X16850Y19750D01*
G01X17650Y20550D01*
G01X13600Y18750D02*
G01X14200Y19350D01*
G01X17450Y19350D01*
G01X18650Y20550D01*
G54D12*
G01X25627Y10450D02*
G01X25650Y11150D01*
G54D11*
G01X27450Y6516D02*
G01X27000Y6950D01*
G01X26734Y7215D01*
G01X27450Y6517D02*
G01X27450Y1400D01*
G01X26750Y800D01*
G01X11700Y800D01*
G01X1363Y800D01*
G54D10*
G01X23000Y11900D02*
G01X23000Y11900D01*
G01X30603Y11900D01*
G01X31350Y12700D01*
G01X22500Y10900D02*
G01X22600Y10350D01*
G01X23000Y11900D02*
G01X23000Y11900D01*
G01X22071Y10696D01*
G01X21600Y10350D01*
G54D11*
G01X1363Y800D02*
G01X950Y1350D01*
G01X950Y17244D01*
G01X1500Y17750D01*
G01X2450Y18700D01*
G01X1400Y18600D02*
G01X1400Y17400D01*
G01X1250Y17600D02*
G01X2400Y17600D01*
G54D10*
G01X23550Y7400D02*
G01X24050Y6900D01*
G01X24050Y2200D01*
G01X23800Y1950D01*
G01X12250Y1950D01*
G01X11400Y1100D01*
G01X1650Y1100D01*
G01X1250Y1500D01*
G01X1250Y16250D01*
G01X2200Y17200D01*
G01X2900Y17200D01*
G01X3050Y17350D01*
G01X3050Y20736D01*
G01X3825Y21400D01*
G01X4100Y21400D01*
G01X5650Y19850D02*
G01X3550Y19850D01*
G01X3250Y19550D01*
G01X3250Y17250D01*
G01X2950Y16950D01*
G01X2200Y16950D01*
G01X1411Y16161D01*
G01X1411Y12288D01*
G01X4350Y9350D01*
G01X8050Y9350D01*
G01X10113Y11411D01*
G01X11292Y11403D01*
G01X12050Y10409D01*
G01X12050Y7150D01*
G01X12300Y6900D01*
G01X13100Y6900D01*
G01X13600Y7400D01*
G01X13550Y7400D01*
G01X6250Y20400D02*
G01X7250Y21400D01*
G01X6411Y20550D02*
G01X5678Y19850D01*
G01X7400Y18500D02*
G01X7400Y17450D01*
G01X7000Y17050D01*
G01X5750Y17050D01*
G01X4800Y18000D01*
G01X4800Y19850D01*
G01X5350Y19850D01*
G01X2750Y16950D02*
G01X2750Y16000D01*
G01X2750Y16000D01*
G01X7780Y22400D02*
G01X7780Y20230D01*
G01X7450Y19900D01*
G01X6200Y19900D01*
G01X5800Y19500D01*
G01X5800Y17850D01*
G01X9950Y21800D02*
G01X9950Y21750D01*
G01X7950Y19750D01*
G01X7800Y19750D01*
G01X6511Y19711D01*
G01X6150Y19350D01*
G01X6150Y17450D01*
G01X6300Y17300D01*
G01X6950Y17300D01*
G01X7100Y17450D01*
G01X7100Y19250D01*
G01X7200Y19350D01*
G01X7850Y19350D01*
G01X7950Y19250D01*
G01X7950Y17500D01*
G01X6450Y16000D01*
G01X3550Y16000D01*
G01X2750Y16000D02*
G01X2750Y16200D01*
G01X2750Y14550D01*
G01X2850Y14400D01*
G01X4165Y14400D01*
G01X4165Y14794D02*
G01X5044Y14794D01*
G01X5300Y15050D01*
G01X6550Y15050D01*
G01X6900Y14700D01*
G01X7550Y14050D01*
G01X4165Y14203D02*
G01X2053Y14203D01*
G01X1650Y13800D01*
G01X1650Y12300D01*
G01X4400Y9550D01*
G01X4400Y9550D01*
G01X7850Y9550D01*
G01X10050Y11750D01*
G01X17550Y11750D01*
G01X4165Y14005D02*
G01X2155Y14005D01*
G01X1900Y13750D01*
G01X1900Y12350D01*
G01X4500Y9750D01*
G01X7700Y9750D01*
G01X10050Y12100D01*
G01X17150Y12100D01*
G01X17034Y12100D02*
G01X19517Y12100D01*
G01X19600Y12182D01*
G01X17550Y11750D02*
G01X18000Y11750D01*
G01X19100Y10650D01*
G01X19100Y7100D01*
G01X19300Y6900D01*
G01X19993Y6900D01*
G01X20550Y7400D01*
G01X6159Y14009D02*
G01X5900Y13990D01*
G01X5900Y11900D01*
G01X5600Y11600D01*
G01X6159Y14205D02*
G01X5755Y14205D01*
G01X5600Y14050D01*
G01X5600Y13600D01*
G01X4650Y12600D01*
G01X4250Y12350D01*
G01X6159Y14401D02*
G01X5601Y14401D01*
G01X5300Y14100D01*
G01X5300Y13700D01*
G01X4575Y12975D01*
G01X6159Y14796D02*
G01X6503Y14796D01*
G01X7000Y14300D01*
G01X7000Y13196D01*
G01X7934Y12271D01*
G01X8000Y12250D01*
G01X6159Y14598D02*
G01X6451Y14598D01*
G01X6800Y14250D01*
G01X6800Y12450D01*
G01X6750Y12350D01*
G01X7550Y14050D02*
G01X8700Y12900D01*
G01X8850Y12750D01*
G01X9250Y12250D01*
G01X5600Y11600D02*
G01X3403Y11600D01*
G01X3100Y11900D01*
G01X3100Y12250D01*
G01X5300Y12250D02*
G01X4850Y11800D01*
G01X3857Y11800D01*
G01X3700Y11951D01*
G01X3700Y12750D01*
G01X3850Y12900D01*
G01X4500Y12900D01*
G01X4700Y13100D01*
G01X4165Y14596D02*
G01X3703Y14596D01*
G01X3550Y14800D01*
G01X3550Y14850D01*
G01X3550Y15200D01*
G01X28149Y156D02*
G01X28100Y5850D01*
G01X28100Y5850D02*
G01X28053Y11448D01*
G01X28053Y11448D02*
G01X28552Y11448D01*
G01X28552Y11448D02*
G01X29922Y10007D01*
G01X30148Y9213D02*
G01X30148Y7996D01*
G01X30207Y7853D02*
G01X30467Y7593D01*
G01X30752Y7878D02*
G01X30551Y8079D01*
G01X30551Y8079D02*
G01X30551Y9213D01*
G01X31644Y9263D02*
G01X31644Y7824D01*
G01X32127Y7062D02*
G01X31807Y6742D01*
G01X31748Y6600D02*
G01X31748Y3473D01*
G01X32151Y3473D02*
G01X32151Y6516D01*
G01X32151Y6516D02*
G01X32542Y6907D01*
G01X32601Y7050D02*
G01X32601Y9237D01*
G01X30275Y10221D02*
G01X28870Y11698D01*
G01X28870Y11698D02*
G01X30603Y11698D01*
G01X30751Y11762D02*
G01X31165Y12206D01*
G01X33551Y13186D02*
G01X33551Y13400D01*
G01X33492Y13542D02*
G01X32451Y14583D01*
G01X32451Y14583D02*
G01X32451Y16100D01*
G01X32392Y16242D02*
G01X31951Y16683D01*
G01X31951Y16683D02*
G01X31951Y19206D01*
G01X31548Y19254D02*
G01X31548Y16600D01*
G01X31607Y16457D02*
G01X32048Y16016D01*
G01X32048Y16016D02*
G01X32048Y15485D01*
G01X31594Y14724D02*
G01X31594Y13403D01*
G01X31653Y13261D02*
G01X31916Y12998D01*
G01X31551Y13186D02*
G01X31551Y14596D01*
G01X31492Y14738D02*
G01X31185Y15045D01*
G01X30925Y14735D02*
G01X31148Y14512D01*
G01X31148Y14512D02*
G01X31148Y13186D01*
G01X30265Y13219D02*
G01X28066Y15418D01*
G01X28066Y15418D02*
G01X28100Y23193D01*
G01X28100Y23193D02*
G01X35093Y23193D01*
G01X35093Y23193D02*
G01X35093Y156D01*
G01X35093Y156D02*
G01X28149Y156D01*
G01X28147Y295D02*
G01X35093Y295D01*
G01X28146Y497D02*
G01X35093Y497D01*
G01X28144Y699D02*
G01X35093Y699D01*
G01X28142Y901D02*
G01X35093Y901D01*
G01X28141Y1103D02*
G01X35093Y1103D01*
G01X28139Y1305D02*
G01X35093Y1305D01*
G01X28137Y1507D02*
G01X35093Y1507D01*
G01X28135Y1709D02*
G01X35093Y1709D01*
G01X28134Y1911D02*
G01X35093Y1911D01*
G01X28132Y2113D02*
G01X35093Y2113D01*
G01X28130Y2315D02*
G01X35093Y2315D01*
G01X28128Y2517D02*
G01X35093Y2517D01*
G01X28127Y2719D02*
G01X31616Y2719D01*
G01X32283Y2719D02*
G01X35093Y2719D01*
G01X28125Y2921D02*
G01X31498Y2921D01*
G01X32401Y2921D02*
G01X35093Y2921D01*
G01X28123Y3123D02*
G01X31486Y3123D01*
G01X32413Y3123D02*
G01X35093Y3123D01*
G01X28122Y3325D02*
G01X31570Y3325D01*
G01X32329Y3325D02*
G01X35093Y3325D01*
G01X28120Y3527D02*
G01X31748Y3527D01*
G01X32151Y3527D02*
G01X35093Y3527D01*
G01X28118Y3729D02*
G01X31748Y3729D01*
G01X32151Y3729D02*
G01X35093Y3729D01*
G01X28116Y3931D02*
G01X31748Y3931D01*
G01X32151Y3931D02*
G01X35093Y3931D01*
G01X28115Y4133D02*
G01X31748Y4133D01*
G01X32151Y4133D02*
G01X35093Y4133D01*
G01X28113Y4335D02*
G01X31748Y4335D01*
G01X32151Y4335D02*
G01X35093Y4335D01*
G01X28111Y4537D02*
G01X31748Y4537D01*
G01X32151Y4537D02*
G01X35093Y4537D01*
G01X28109Y4739D02*
G01X31748Y4739D01*
G01X32151Y4739D02*
G01X35093Y4739D01*
G01X28108Y4941D02*
G01X31748Y4941D01*
G01X32151Y4941D02*
G01X35093Y4941D01*
G01X28106Y5143D02*
G01X31748Y5143D01*
G01X32151Y5143D02*
G01X35093Y5143D01*
G01X28104Y5345D02*
G01X31748Y5345D01*
G01X32151Y5345D02*
G01X35093Y5345D01*
G01X28103Y5547D02*
G01X31748Y5547D01*
G01X32151Y5547D02*
G01X35093Y5547D01*
G01X28101Y5749D02*
G01X31748Y5749D01*
G01X32151Y5749D02*
G01X35093Y5749D01*
G01X28099Y5951D02*
G01X31748Y5951D01*
G01X32151Y5951D02*
G01X35093Y5951D01*
G01X28097Y6153D02*
G01X31748Y6153D01*
G01X32151Y6153D02*
G01X35093Y6153D01*
G01X28096Y6355D02*
G01X31748Y6355D01*
G01X32151Y6355D02*
G01X35093Y6355D01*
G01X28094Y6557D02*
G01X31748Y6557D01*
G01X32192Y6557D02*
G01X35093Y6557D01*
G01X28092Y6759D02*
G01X31824Y6759D01*
G01X32394Y6759D02*
G01X35093Y6759D01*
G01X28091Y6961D02*
G01X32026Y6961D01*
G01X32581Y6961D02*
G01X35093Y6961D01*
G01X28089Y7163D02*
G01X30546Y7163D01*
G01X31245Y7163D02*
G01X31546Y7163D01*
G01X32601Y7163D02*
G01X35093Y7163D01*
G01X28087Y7365D02*
G01X30452Y7365D01*
G01X31339Y7365D02*
G01X31452Y7365D01*
G01X32601Y7365D02*
G01X35093Y7365D01*
G01X28085Y7567D02*
G01X30460Y7567D01*
G01X31331Y7567D02*
G01X31460Y7567D01*
G01X32601Y7567D02*
G01X35093Y7567D01*
G01X28084Y7769D02*
G01X30291Y7769D01*
G01X31214Y7769D02*
G01X31577Y7769D01*
G01X32601Y7769D02*
G01X35093Y7769D01*
G01X28082Y7971D02*
G01X30149Y7971D01*
G01X30659Y7971D02*
G01X31644Y7971D01*
G01X32601Y7971D02*
G01X35093Y7971D01*
G01X28080Y8173D02*
G01X30148Y8173D01*
G01X30551Y8173D02*
G01X31644Y8173D01*
G01X32601Y8173D02*
G01X35093Y8173D01*
G01X28079Y8375D02*
G01X30148Y8375D01*
G01X30551Y8375D02*
G01X31644Y8375D01*
G01X32601Y8375D02*
G01X35093Y8375D01*
G01X28077Y8577D02*
G01X30148Y8577D01*
G01X30551Y8577D02*
G01X31644Y8577D01*
G01X32601Y8577D02*
G01X35093Y8577D01*
G01X28075Y8779D02*
G01X30148Y8779D01*
G01X30551Y8779D02*
G01X31644Y8779D01*
G01X32601Y8779D02*
G01X35093Y8779D01*
G01X28073Y8981D02*
G01X30148Y8981D01*
G01X30551Y8981D02*
G01X31644Y8981D01*
G01X32601Y8981D02*
G01X35093Y8981D01*
G01X28072Y9183D02*
G01X30148Y9183D01*
G01X30551Y9183D02*
G01X31246Y9183D01*
G01X31453Y9183D02*
G01X31644Y9183D01*
G01X32601Y9183D02*
G01X35093Y9183D01*
G01X28070Y9385D02*
G01X29927Y9385D01*
G01X30772Y9385D02*
G01X30927Y9385D01*
G01X32772Y9385D02*
G01X35093Y9385D01*
G01X28068Y9587D02*
G01X29835Y9587D01*
G01X32864Y9587D02*
G01X35093Y9587D01*
G01X28067Y9789D02*
G01X29831Y9789D01*
G01X32868Y9789D02*
G01X35093Y9789D01*
G01X28065Y9991D02*
G01X29911Y9991D01*
G01X30788Y9991D02*
G01X30911Y9991D01*
G01X31788Y9991D02*
G01X31911Y9991D01*
G01X32788Y9991D02*
G01X35093Y9991D01*
G01X28063Y10193D02*
G01X29745Y10193D01*
G01X30532Y10193D02*
G01X31167Y10193D01*
G01X31532Y10193D02*
G01X32167Y10193D01*
G01X32532Y10193D02*
G01X35093Y10193D01*
G01X28061Y10395D02*
G01X29553Y10395D01*
G01X30109Y10395D02*
G01X35093Y10395D01*
G01X28060Y10597D02*
G01X29361Y10597D01*
G01X29917Y10597D02*
G01X35093Y10597D01*
G01X28058Y10799D02*
G01X29169Y10799D01*
G01X29725Y10799D02*
G01X35093Y10799D01*
G01X28056Y11001D02*
G01X28977Y11001D01*
G01X29533Y11001D02*
G01X35093Y11001D01*
G01X28055Y11203D02*
G01X28785Y11203D01*
G01X29341Y11203D02*
G01X35093Y11203D01*
G01X28053Y11405D02*
G01X28593Y11405D01*
G01X29149Y11405D02*
G01X35093Y11405D01*
G01X28957Y11607D02*
G01X35093Y11607D01*
G01X30795Y11809D02*
G01X35093Y11809D01*
G01X30983Y12011D02*
G01X35093Y12011D01*
G01X31552Y12213D02*
G01X32147Y12213D01*
G01X32552Y12213D02*
G01X33147Y12213D01*
G01X33552Y12213D02*
G01X35093Y12213D01*
G01X31793Y12415D02*
G01X31906Y12415D01*
G01X32793Y12415D02*
G01X32906Y12415D01*
G01X33793Y12415D02*
G01X35093Y12415D01*
G01X33870Y12617D02*
G01X35093Y12617D01*
G01X33862Y12819D02*
G01X35093Y12819D01*
G01X30766Y13021D02*
G01X30933Y13021D01*
G01X31766Y13021D02*
G01X31893Y13021D01*
G01X33766Y13021D02*
G01X35093Y13021D01*
G01X30261Y13223D02*
G01X30296Y13223D01*
G01X30403Y13223D02*
G01X31148Y13223D01*
G01X31551Y13223D02*
G01X31691Y13223D01*
G01X33551Y13223D02*
G01X35093Y13223D01*
G01X30059Y13425D02*
G01X31148Y13425D01*
G01X31551Y13425D02*
G01X31594Y13425D01*
G01X33549Y13425D02*
G01X35093Y13425D01*
G01X29857Y13627D02*
G01X31148Y13627D01*
G01X31551Y13627D02*
G01X31594Y13627D01*
G01X33407Y13627D02*
G01X35093Y13627D01*
G01X29655Y13829D02*
G01X31148Y13829D01*
G01X31551Y13829D02*
G01X31594Y13829D01*
G01X33205Y13829D02*
G01X35093Y13829D01*
G01X29453Y14031D02*
G01X31148Y14031D01*
G01X31551Y14031D02*
G01X31594Y14031D01*
G01X33003Y14031D02*
G01X35093Y14031D01*
G01X29251Y14233D02*
G01X31148Y14233D01*
G01X31551Y14233D02*
G01X31594Y14233D01*
G01X32801Y14233D02*
G01X35093Y14233D01*
G01X29049Y14435D02*
G01X31148Y14435D01*
G01X31551Y14435D02*
G01X31594Y14435D01*
G01X32599Y14435D02*
G01X35093Y14435D01*
G01X28847Y14637D02*
G01X31023Y14637D01*
G01X31547Y14637D02*
G01X31594Y14637D01*
G01X32451Y14637D02*
G01X35093Y14637D01*
G01X28645Y14839D02*
G01X30418Y14839D01*
G01X31391Y14839D02*
G01X31418Y14839D01*
G01X32451Y14839D02*
G01X35093Y14839D01*
G01X28443Y15041D02*
G01X30307Y15041D01*
G01X31189Y15041D02*
G01X31307Y15041D01*
G01X32451Y15041D02*
G01X35093Y15041D01*
G01X28241Y15243D02*
G01X30304Y15243D01*
G01X31187Y15243D02*
G01X31304Y15243D01*
G01X32451Y15243D02*
G01X35093Y15243D01*
G01X28066Y15445D02*
G01X30405Y15445D01*
G01X31087Y15445D02*
G01X31405Y15445D01*
G01X32451Y15445D02*
G01X35093Y15445D01*
G01X28067Y15647D02*
G01X32048Y15647D01*
G01X32451Y15647D02*
G01X35093Y15647D01*
G01X28068Y15849D02*
G01X32048Y15849D01*
G01X32451Y15849D02*
G01X35093Y15849D01*
G01X28069Y16051D02*
G01X32013Y16051D01*
G01X32451Y16051D02*
G01X35093Y16051D01*
G01X28069Y16253D02*
G01X31811Y16253D01*
G01X32381Y16253D02*
G01X35093Y16253D01*
G01X28070Y16455D02*
G01X31609Y16455D01*
G01X32179Y16455D02*
G01X35093Y16455D01*
G01X28071Y16657D02*
G01X31548Y16657D01*
G01X31977Y16657D02*
G01X35093Y16657D01*
G01X28072Y16859D02*
G01X31548Y16859D01*
G01X31951Y16859D02*
G01X35093Y16859D01*
G01X28073Y17061D02*
G01X31548Y17061D01*
G01X31951Y17061D02*
G01X35093Y17061D01*
G01X28074Y17263D02*
G01X31548Y17263D01*
G01X31951Y17263D02*
G01X35093Y17263D01*
G01X28075Y17465D02*
G01X31548Y17465D01*
G01X31951Y17465D02*
G01X35093Y17465D01*
G01X28076Y17667D02*
G01X31548Y17667D01*
G01X31951Y17667D02*
G01X35093Y17667D01*
G01X28076Y17869D02*
G01X31548Y17869D01*
G01X31951Y17869D02*
G01X35093Y17869D01*
G01X28077Y18071D02*
G01X31548Y18071D01*
G01X31951Y18071D02*
G01X35093Y18071D01*
G01X28078Y18273D02*
G01X31548Y18273D01*
G01X31951Y18273D02*
G01X35093Y18273D01*
G01X28079Y18475D02*
G01X31548Y18475D01*
G01X31951Y18475D02*
G01X35093Y18475D01*
G01X28080Y18677D02*
G01X31548Y18677D01*
G01X31951Y18677D02*
G01X35093Y18677D01*
G01X28081Y18879D02*
G01X31548Y18879D01*
G01X31951Y18879D02*
G01X35093Y18879D01*
G01X28082Y19081D02*
G01X31548Y19081D01*
G01X31951Y19081D02*
G01X35093Y19081D01*
G01X28083Y19283D02*
G01X31506Y19283D01*
G01X32093Y19283D02*
G01X35093Y19283D01*
G01X28083Y19485D02*
G01X31360Y19485D01*
G01X32239Y19485D02*
G01X35093Y19485D01*
G01X28084Y19687D02*
G01X31332Y19687D01*
G01X32267Y19687D02*
G01X35093Y19687D01*
G01X28085Y19889D02*
G01X31396Y19889D01*
G01X32203Y19889D02*
G01X35093Y19889D01*
G01X28086Y20091D02*
G01X31642Y20091D01*
G01X31957Y20091D02*
G01X35093Y20091D01*
G01X28087Y20293D02*
G01X35093Y20293D01*
G01X28088Y20495D02*
G01X35093Y20495D01*
G01X28089Y20697D02*
G01X35093Y20697D01*
G01X28090Y20899D02*
G01X35093Y20899D01*
G01X28090Y21101D02*
G01X35093Y21101D01*
G01X28091Y21303D02*
G01X35093Y21303D01*
G01X28092Y21505D02*
G01X35093Y21505D01*
G01X28093Y21707D02*
G01X35093Y21707D01*
G01X28094Y21909D02*
G01X35093Y21909D01*
G01X28095Y22111D02*
G01X35093Y22111D01*
G01X28096Y22313D02*
G01X35093Y22313D01*
G01X28097Y22515D02*
G01X35093Y22515D01*
G01X28097Y22717D02*
G01X35093Y22717D01*
G01X28098Y22919D02*
G01X35093Y22919D01*
G01X28099Y23121D02*
G01X35093Y23121D01*
G01X35092Y156D02*
G01X35092Y23193D01*
G01X34890Y156D02*
G01X34890Y23193D01*
G01X34688Y156D02*
G01X34688Y23193D01*
G01X34486Y156D02*
G01X34486Y23193D01*
G01X34284Y156D02*
G01X34284Y23193D01*
G01X34082Y156D02*
G01X34082Y23193D01*
G01X33880Y156D02*
G01X33880Y23193D01*
G01X33678Y156D02*
G01X33678Y12288D01*
G01X33678Y13111D02*
G01X33678Y23193D01*
G01X33476Y156D02*
G01X33476Y12189D01*
G01X33476Y13558D02*
G01X33476Y23193D01*
G01X33274Y156D02*
G01X33274Y12178D01*
G01X33274Y13760D02*
G01X33274Y23193D01*
G01X33072Y156D02*
G01X33072Y12252D01*
G01X33072Y13962D02*
G01X33072Y23193D01*
G01X32870Y156D02*
G01X32870Y9623D01*
G01X32870Y9776D02*
G01X32870Y12481D01*
G01X32870Y14164D02*
G01X32870Y23193D01*
G01X32668Y156D02*
G01X32668Y9281D01*
G01X32668Y10118D02*
G01X32668Y12281D01*
G01X32668Y14366D02*
G01X32668Y23193D01*
G01X32466Y156D02*
G01X32466Y6831D01*
G01X32466Y10213D02*
G01X32466Y12186D01*
G01X32466Y14568D02*
G01X32466Y23193D01*
G01X32264Y156D02*
G01X32264Y2702D01*
G01X32264Y3397D02*
G01X32264Y6629D01*
G01X32264Y10219D02*
G01X32264Y12180D01*
G01X32264Y16370D02*
G01X32264Y19588D01*
G01X32264Y19711D02*
G01X32264Y23193D01*
G01X32062Y156D02*
G01X32062Y2594D01*
G01X32062Y6997D02*
G01X32062Y7030D01*
G01X32062Y10141D02*
G01X32062Y12258D01*
G01X32062Y16572D02*
G01X32062Y19261D01*
G01X32062Y20038D02*
G01X32062Y23193D01*
G01X31860Y156D02*
G01X31860Y2589D01*
G01X31860Y6795D02*
G01X31860Y6999D01*
G01X31860Y9894D02*
G01X31860Y12505D01*
G01X31860Y12894D02*
G01X31860Y13054D01*
G01X31860Y15586D02*
G01X31860Y16204D01*
G01X31860Y20115D02*
G01X31860Y23193D01*
G01X31658Y156D02*
G01X31658Y2682D01*
G01X31658Y3417D02*
G01X31658Y7065D01*
G01X31658Y10126D02*
G01X31658Y12273D01*
G01X31658Y13126D02*
G01X31658Y13256D01*
G01X31658Y15592D02*
G01X31658Y16406D01*
G01X31658Y20097D02*
G01X31658Y23193D01*
G01X31456Y156D02*
G01X31456Y7345D01*
G01X31456Y7554D02*
G01X31456Y9184D01*
G01X31456Y10215D02*
G01X31456Y12184D01*
G01X31456Y14774D02*
G01X31456Y14803D01*
G01X31456Y15496D02*
G01X31456Y19330D01*
G01X31456Y19969D02*
G01X31456Y23193D01*
G01X31254Y156D02*
G01X31254Y7175D01*
G01X31254Y7724D02*
G01X31254Y9182D01*
G01X31254Y10217D02*
G01X31254Y12182D01*
G01X31254Y14976D02*
G01X31254Y23193D01*
G01X31052Y156D02*
G01X31052Y7026D01*
G01X31052Y7873D02*
G01X31052Y9265D01*
G01X31052Y10134D02*
G01X31052Y12085D01*
G01X31052Y13134D02*
G01X31052Y14608D01*
G01X31052Y15481D02*
G01X31052Y23193D01*
G01X30850Y156D02*
G01X30850Y7000D01*
G01X30850Y7899D02*
G01X30850Y9532D01*
G01X30850Y9867D02*
G01X30850Y11869D01*
G01X30850Y12867D02*
G01X30850Y14710D01*
G01X30850Y15589D02*
G01X30850Y23193D01*
G01X30648Y156D02*
G01X30648Y7072D01*
G01X30648Y7982D02*
G01X30648Y9266D01*
G01X30648Y10133D02*
G01X30648Y11703D01*
G01X30648Y13133D02*
G01X30648Y14709D01*
G01X30648Y15590D02*
G01X30648Y23193D01*
G01X30446Y156D02*
G01X30446Y7404D01*
G01X30446Y7495D02*
G01X30446Y7614D01*
G01X30446Y10217D02*
G01X30446Y11698D01*
G01X30446Y13217D02*
G01X30446Y14811D01*
G01X30446Y15488D02*
G01X30446Y23193D01*
G01X30244Y156D02*
G01X30244Y7816D01*
G01X30244Y10253D02*
G01X30244Y11698D01*
G01X30244Y13240D02*
G01X30244Y23193D01*
G01X30042Y156D02*
G01X30042Y9272D01*
G01X30042Y10465D02*
G01X30042Y11698D01*
G01X30042Y13442D02*
G01X30042Y23193D01*
G01X29840Y156D02*
G01X29840Y9565D01*
G01X29840Y9834D02*
G01X29840Y10093D01*
G01X29840Y10678D02*
G01X29840Y11698D01*
G01X29840Y13644D02*
G01X29840Y23193D01*
G01X29638Y156D02*
G01X29638Y10305D01*
G01X29638Y10890D02*
G01X29638Y11698D01*
G01X29638Y13846D02*
G01X29638Y23193D01*
G01X29436Y156D02*
G01X29436Y10518D01*
G01X29436Y11103D02*
G01X29436Y11698D01*
G01X29436Y14048D02*
G01X29436Y23193D01*
G01X29234Y156D02*
G01X29234Y10730D01*
G01X29234Y11315D02*
G01X29234Y11698D01*
G01X29234Y14250D02*
G01X29234Y23193D01*
G01X29032Y156D02*
G01X29032Y10943D01*
G01X29032Y11528D02*
G01X29032Y11698D01*
G01X29032Y14452D02*
G01X29032Y23193D01*
G01X28830Y156D02*
G01X28830Y11155D01*
G01X28830Y14654D02*
G01X28830Y23193D01*
G01X28628Y156D02*
G01X28628Y11368D01*
G01X28628Y14856D02*
G01X28628Y23193D01*
G01X28426Y156D02*
G01X28426Y11448D01*
G01X28426Y15058D02*
G01X28426Y23193D01*
G01X28224Y156D02*
G01X28224Y11448D01*
G01X28224Y15260D02*
G01X28224Y23193D01*
G01X32047Y7875D02*
G01X32047Y9269D01*
G01X32198Y9195D02*
G01X32198Y7785D01*
G01X32047Y7971D02*
G01X32198Y7971D01*
G01X32047Y8173D02*
G01X32198Y8173D01*
G01X32047Y8375D02*
G01X32198Y8375D01*
G01X32047Y8577D02*
G01X32198Y8577D01*
G01X32047Y8779D02*
G01X32198Y8779D01*
G01X32047Y8981D02*
G01X32198Y8981D01*
G01X32047Y9183D02*
G01X32198Y9183D01*
G01X32062Y7869D02*
G01X32062Y9258D01*
G01X28052Y12101D02*
G01X28063Y14851D01*
G01X28063Y14851D02*
G01X29916Y12998D01*
G01X30870Y12481D02*
G01X30516Y12101D01*
G01X30516Y12101D02*
G01X28052Y12101D01*
G01X28052Y12213D02*
G01X30147Y12213D01*
G01X30552Y12213D02*
G01X30621Y12213D01*
G01X28053Y12415D02*
G01X29906Y12415D01*
G01X30793Y12415D02*
G01X30809Y12415D01*
G01X28054Y12617D02*
G01X29829Y12617D01*
G01X28055Y12819D02*
G01X29837Y12819D01*
G01X28056Y13021D02*
G01X29893Y13021D01*
G01X28056Y13223D02*
G01X29691Y13223D01*
G01X28057Y13425D02*
G01X29489Y13425D01*
G01X28058Y13627D02*
G01X29287Y13627D01*
G01X28059Y13829D02*
G01X29085Y13829D01*
G01X28060Y14031D02*
G01X28883Y14031D01*
G01X28061Y14233D02*
G01X28681Y14233D01*
G01X28062Y14435D02*
G01X28479Y14435D01*
G01X28063Y14637D02*
G01X28277Y14637D01*
G01X28063Y14839D02*
G01X28075Y14839D01*
G01X30850Y12460D02*
G01X30850Y12532D01*
G01X30648Y12243D02*
G01X30648Y12266D01*
G01X30446Y12101D02*
G01X30446Y12182D01*
G01X30244Y12101D02*
G01X30244Y12184D01*
G01X30042Y12101D02*
G01X30042Y12272D01*
G01X29840Y12101D02*
G01X29840Y12565D01*
G01X29840Y12834D02*
G01X29840Y13074D01*
G01X29638Y12101D02*
G01X29638Y13276D01*
G01X29436Y12101D02*
G01X29436Y13478D01*
G01X29234Y12101D02*
G01X29234Y13680D01*
G01X29032Y12101D02*
G01X29032Y13882D01*
G01X28830Y12101D02*
G01X28830Y14084D01*
G01X28628Y12101D02*
G01X28628Y14286D01*
G01X28426Y12101D02*
G01X28426Y14488D01*
G01X28224Y12101D02*
G01X28224Y14690D01*
G01X32265Y13219D02*
G01X31997Y13487D01*
G01X31997Y13487D02*
G01X31997Y14775D01*
G01X32048Y14814D02*
G01X32048Y14500D01*
G01X32107Y14357D02*
G01X33148Y13316D01*
G01X33148Y13316D02*
G01X33148Y13186D01*
G01X32766Y13021D02*
G01X32933Y13021D01*
G01X32261Y13223D02*
G01X32296Y13223D01*
G01X32403Y13223D02*
G01X33148Y13223D01*
G01X32059Y13425D02*
G01X33039Y13425D01*
G01X31997Y13627D02*
G01X32837Y13627D01*
G01X31997Y13829D02*
G01X32635Y13829D01*
G01X31997Y14031D02*
G01X32433Y14031D01*
G01X31997Y14233D02*
G01X32231Y14233D01*
G01X31997Y14435D02*
G01X32058Y14435D01*
G01X31997Y14637D02*
G01X32048Y14637D01*
G01X33072Y13147D02*
G01X33072Y13392D01*
G01X32870Y12918D02*
G01X32870Y13594D01*
G01X32668Y13118D02*
G01X32668Y13796D01*
G01X32466Y13213D02*
G01X32466Y13998D01*
G01X32264Y13220D02*
G01X32264Y14200D01*
G01X32062Y13422D02*
G01X32062Y14425D01*
G01X156Y156D02*
G01X156Y23193D01*
G01X156Y23193D02*
G01X27999Y23193D01*
G01X27999Y23193D02*
G01X27997Y22850D01*
G01X27997Y22850D02*
G01X650Y22850D01*
G01X599Y22800D02*
G01X499Y550D01*
G01X550Y499D02*
G01X28045Y499D01*
G01X28045Y499D02*
G01X28048Y156D01*
G01X28048Y156D02*
G01X156Y156D01*
G01X156Y295D02*
G01X28046Y295D01*
G01X156Y497D02*
G01X28045Y497D01*
G01X156Y699D02*
G01X500Y699D01*
G01X156Y901D02*
G01X501Y901D01*
G01X156Y1103D02*
G01X501Y1103D01*
G01X156Y1305D02*
G01X502Y1305D01*
G01X156Y1507D02*
G01X503Y1507D01*
G01X156Y1709D02*
G01X504Y1709D01*
G01X156Y1911D02*
G01X505Y1911D01*
G01X156Y2113D02*
G01X506Y2113D01*
G01X156Y2315D02*
G01X507Y2315D01*
G01X156Y2517D02*
G01X508Y2517D01*
G01X156Y2719D02*
G01X509Y2719D01*
G01X156Y2921D02*
G01X510Y2921D01*
G01X156Y3123D02*
G01X511Y3123D01*
G01X156Y3325D02*
G01X511Y3325D01*
G01X156Y3527D02*
G01X512Y3527D01*
G01X156Y3729D02*
G01X513Y3729D01*
G01X156Y3931D02*
G01X514Y3931D01*
G01X156Y4133D02*
G01X515Y4133D01*
G01X156Y4335D02*
G01X516Y4335D01*
G01X156Y4537D02*
G01X517Y4537D01*
G01X156Y4739D02*
G01X518Y4739D01*
G01X156Y4941D02*
G01X519Y4941D01*
G01X156Y5143D02*
G01X520Y5143D01*
G01X156Y5345D02*
G01X521Y5345D01*
G01X156Y5547D02*
G01X521Y5547D01*
G01X156Y5749D02*
G01X522Y5749D01*
G01X156Y5951D02*
G01X523Y5951D01*
G01X156Y6153D02*
G01X524Y6153D01*
G01X156Y6355D02*
G01X525Y6355D01*
G01X156Y6557D02*
G01X526Y6557D01*
G01X156Y6759D02*
G01X527Y6759D01*
G01X156Y6961D02*
G01X528Y6961D01*
G01X156Y7163D02*
G01X529Y7163D01*
G01X156Y7365D02*
G01X530Y7365D01*
G01X156Y7567D02*
G01X531Y7567D01*
G01X156Y7769D02*
G01X531Y7769D01*
G01X156Y7971D02*
G01X532Y7971D01*
G01X156Y8173D02*
G01X533Y8173D01*
G01X156Y8375D02*
G01X534Y8375D01*
G01X156Y8577D02*
G01X535Y8577D01*
G01X156Y8779D02*
G01X536Y8779D01*
G01X156Y8981D02*
G01X537Y8981D01*
G01X156Y9183D02*
G01X538Y9183D01*
G01X156Y9385D02*
G01X539Y9385D01*
G01X156Y9587D02*
G01X540Y9587D01*
G01X156Y9789D02*
G01X541Y9789D01*
G01X156Y9991D02*
G01X541Y9991D01*
G01X156Y10193D02*
G01X542Y10193D01*
G01X156Y10395D02*
G01X543Y10395D01*
G01X156Y10597D02*
G01X544Y10597D01*
G01X156Y10799D02*
G01X545Y10799D01*
G01X156Y11001D02*
G01X546Y11001D01*
G01X156Y11203D02*
G01X547Y11203D01*
G01X156Y11405D02*
G01X548Y11405D01*
G01X156Y11607D02*
G01X549Y11607D01*
G01X156Y11809D02*
G01X550Y11809D01*
G01X156Y12011D02*
G01X551Y12011D01*
G01X156Y12213D02*
G01X551Y12213D01*
G01X156Y12415D02*
G01X552Y12415D01*
G01X156Y12617D02*
G01X553Y12617D01*
G01X156Y12819D02*
G01X554Y12819D01*
G01X156Y13021D02*
G01X555Y13021D01*
G01X156Y13223D02*
G01X556Y13223D01*
G01X156Y13425D02*
G01X557Y13425D01*
G01X156Y13627D02*
G01X558Y13627D01*
G01X156Y13829D02*
G01X559Y13829D01*
G01X156Y14031D02*
G01X560Y14031D01*
G01X156Y14233D02*
G01X561Y14233D01*
G01X156Y14435D02*
G01X561Y14435D01*
G01X156Y14637D02*
G01X562Y14637D01*
G01X156Y14839D02*
G01X563Y14839D01*
G01X156Y15041D02*
G01X564Y15041D01*
G01X156Y15243D02*
G01X565Y15243D01*
G01X156Y15445D02*
G01X566Y15445D01*
G01X156Y15647D02*
G01X567Y15647D01*
G01X156Y15849D02*
G01X568Y15849D01*
G01X156Y16051D02*
G01X569Y16051D01*
G01X156Y16253D02*
G01X570Y16253D01*
G01X156Y16455D02*
G01X570Y16455D01*
G01X156Y16657D02*
G01X571Y16657D01*
G01X156Y16859D02*
G01X572Y16859D01*
G01X156Y17061D02*
G01X573Y17061D01*
G01X156Y17263D02*
G01X574Y17263D01*
G01X156Y17465D02*
G01X575Y17465D01*
G01X156Y17667D02*
G01X576Y17667D01*
G01X156Y17869D02*
G01X577Y17869D01*
G01X156Y18071D02*
G01X578Y18071D01*
G01X156Y18273D02*
G01X579Y18273D01*
G01X156Y18475D02*
G01X580Y18475D01*
G01X156Y18677D02*
G01X580Y18677D01*
G01X156Y18879D02*
G01X581Y18879D01*
G01X156Y19081D02*
G01X582Y19081D01*
G01X156Y19283D02*
G01X583Y19283D01*
G01X156Y19485D02*
G01X584Y19485D01*
G01X156Y19687D02*
G01X585Y19687D01*
G01X156Y19889D02*
G01X586Y19889D01*
G01X156Y20091D02*
G01X587Y20091D01*
G01X156Y20293D02*
G01X588Y20293D01*
G01X156Y20495D02*
G01X589Y20495D01*
G01X156Y20697D02*
G01X590Y20697D01*
G01X156Y20899D02*
G01X590Y20899D01*
G01X156Y21101D02*
G01X591Y21101D01*
G01X156Y21303D02*
G01X592Y21303D01*
G01X156Y21505D02*
G01X593Y21505D01*
G01X156Y21707D02*
G01X594Y21707D01*
G01X156Y21909D02*
G01X595Y21909D01*
G01X156Y22111D02*
G01X596Y22111D01*
G01X156Y22313D02*
G01X597Y22313D01*
G01X156Y22515D02*
G01X598Y22515D01*
G01X156Y22717D02*
G01X599Y22717D01*
G01X156Y22919D02*
G01X27997Y22919D01*
G01X156Y23121D02*
G01X27998Y23121D01*
G01X28022Y156D02*
G01X28022Y499D01*
G01X27820Y156D02*
G01X27820Y499D01*
G01X27820Y22850D02*
G01X27820Y23193D01*
G01X27618Y156D02*
G01X27618Y499D01*
G01X27618Y22850D02*
G01X27618Y23193D01*
G01X27416Y156D02*
G01X27416Y499D01*
G01X27416Y22850D02*
G01X27416Y23193D01*
G01X27214Y156D02*
G01X27214Y499D01*
G01X27214Y22850D02*
G01X27214Y23193D01*
G01X27012Y156D02*
G01X27012Y499D01*
G01X27012Y22850D02*
G01X27012Y23193D01*
G01X26810Y156D02*
G01X26810Y499D01*
G01X26810Y22850D02*
G01X26810Y23193D01*
G01X26608Y156D02*
G01X26608Y499D01*
G01X26608Y22850D02*
G01X26608Y23193D01*
G01X26406Y156D02*
G01X26406Y499D01*
G01X26406Y22850D02*
G01X26406Y23193D01*
G01X26204Y156D02*
G01X26204Y499D01*
G01X26204Y22850D02*
G01X26204Y23193D01*
G01X26002Y156D02*
G01X26002Y499D01*
G01X26002Y22850D02*
G01X26002Y23193D01*
G01X25800Y156D02*
G01X25800Y499D01*
G01X25800Y22850D02*
G01X25800Y23193D01*
G01X25598Y156D02*
G01X25598Y499D01*
G01X25598Y22850D02*
G01X25598Y23193D01*
G01X25396Y156D02*
G01X25396Y499D01*
G01X25396Y22850D02*
G01X25396Y23193D01*
G01X25194Y156D02*
G01X25194Y499D01*
G01X25194Y22850D02*
G01X25194Y23193D01*
G01X24992Y156D02*
G01X24992Y499D01*
G01X24992Y22850D02*
G01X24992Y23193D01*
G01X24790Y156D02*
G01X24790Y499D01*
G01X24790Y22850D02*
G01X24790Y23193D01*
G01X24588Y156D02*
G01X24588Y499D01*
G01X24588Y22850D02*
G01X24588Y23193D01*
G01X24386Y156D02*
G01X24386Y499D01*
G01X24386Y22850D02*
G01X24386Y23193D01*
G01X24184Y156D02*
G01X24184Y499D01*
G01X24184Y22850D02*
G01X24184Y23193D01*
G01X23982Y156D02*
G01X23982Y499D01*
G01X23982Y22850D02*
G01X23982Y23193D01*
G01X23780Y156D02*
G01X23780Y499D01*
G01X23780Y22850D02*
G01X23780Y23193D01*
G01X23578Y156D02*
G01X23578Y499D01*
G01X23578Y22850D02*
G01X23578Y23193D01*
G01X23376Y156D02*
G01X23376Y499D01*
G01X23376Y22850D02*
G01X23376Y23193D01*
G01X23174Y156D02*
G01X23174Y499D01*
G01X23174Y22850D02*
G01X23174Y23193D01*
G01X22972Y156D02*
G01X22972Y499D01*
G01X22972Y22850D02*
G01X22972Y23193D01*
G01X22770Y156D02*
G01X22770Y499D01*
G01X22770Y22850D02*
G01X22770Y23193D01*
G01X22568Y156D02*
G01X22568Y499D01*
G01X22568Y22850D02*
G01X22568Y23193D01*
G01X22366Y156D02*
G01X22366Y499D01*
G01X22366Y22850D02*
G01X22366Y23193D01*
G01X22164Y156D02*
G01X22164Y499D01*
G01X22164Y22850D02*
G01X22164Y23193D01*
G01X21962Y156D02*
G01X21962Y499D01*
G01X21962Y22850D02*
G01X21962Y23193D01*
G01X21760Y156D02*
G01X21760Y499D01*
G01X21760Y22850D02*
G01X21760Y23193D01*
G01X21558Y156D02*
G01X21558Y499D01*
G01X21558Y22850D02*
G01X21558Y23193D01*
G01X21356Y156D02*
G01X21356Y499D01*
G01X21356Y22850D02*
G01X21356Y23193D01*
G01X21154Y156D02*
G01X21154Y499D01*
G01X21154Y22850D02*
G01X21154Y23193D01*
G01X20952Y156D02*
G01X20952Y499D01*
G01X20952Y22850D02*
G01X20952Y23193D01*
G01X20750Y156D02*
G01X20750Y499D01*
G01X20750Y22850D02*
G01X20750Y23193D01*
G01X20548Y156D02*
G01X20548Y499D01*
G01X20548Y22850D02*
G01X20548Y23193D01*
G01X20346Y156D02*
G01X20346Y499D01*
G01X20346Y22850D02*
G01X20346Y23193D01*
G01X20144Y156D02*
G01X20144Y499D01*
G01X20144Y22850D02*
G01X20144Y23193D01*
G01X19942Y156D02*
G01X19942Y499D01*
G01X19942Y22850D02*
G01X19942Y23193D01*
G01X19740Y156D02*
G01X19740Y499D01*
G01X19740Y22850D02*
G01X19740Y23193D01*
G01X19538Y156D02*
G01X19538Y499D01*
G01X19538Y22850D02*
G01X19538Y23193D01*
G01X19336Y156D02*
G01X19336Y499D01*
G01X19336Y22850D02*
G01X19336Y23193D01*
G01X19134Y156D02*
G01X19134Y499D01*
G01X19134Y22850D02*
G01X19134Y23193D01*
G01X18932Y156D02*
G01X18932Y499D01*
G01X18932Y22850D02*
G01X18932Y23193D01*
G01X18730Y156D02*
G01X18730Y499D01*
G01X18730Y22850D02*
G01X18730Y23193D01*
G01X18528Y156D02*
G01X18528Y499D01*
G01X18528Y22850D02*
G01X18528Y23193D01*
G01X18326Y156D02*
G01X18326Y499D01*
G01X18326Y22850D02*
G01X18326Y23193D01*
G01X18124Y156D02*
G01X18124Y499D01*
G01X18124Y22850D02*
G01X18124Y23193D01*
G01X17922Y156D02*
G01X17922Y499D01*
G01X17922Y22850D02*
G01X17922Y23193D01*
G01X17720Y156D02*
G01X17720Y499D01*
G01X17720Y22850D02*
G01X17720Y23193D01*
G01X17518Y156D02*
G01X17518Y499D01*
G01X17518Y22850D02*
G01X17518Y23193D01*
G01X17316Y156D02*
G01X17316Y499D01*
G01X17316Y22850D02*
G01X17316Y23193D01*
G01X17114Y156D02*
G01X17114Y499D01*
G01X17114Y22850D02*
G01X17114Y23193D01*
G01X16912Y156D02*
G01X16912Y499D01*
G01X16912Y22850D02*
G01X16912Y23193D01*
G01X16710Y156D02*
G01X16710Y499D01*
G01X16710Y22850D02*
G01X16710Y23193D01*
G01X16508Y156D02*
G01X16508Y499D01*
G01X16508Y22850D02*
G01X16508Y23193D01*
G01X16306Y156D02*
G01X16306Y499D01*
G01X16306Y22850D02*
G01X16306Y23193D01*
G01X16104Y156D02*
G01X16104Y499D01*
G01X16104Y22850D02*
G01X16104Y23193D01*
G01X15902Y156D02*
G01X15902Y499D01*
G01X15902Y22850D02*
G01X15902Y23193D01*
G01X15700Y156D02*
G01X15700Y499D01*
G01X15700Y22850D02*
G01X15700Y23193D01*
G01X15498Y156D02*
G01X15498Y499D01*
G01X15498Y22850D02*
G01X15498Y23193D01*
G01X15296Y156D02*
G01X15296Y499D01*
G01X15296Y22850D02*
G01X15296Y23193D01*
G01X15094Y156D02*
G01X15094Y499D01*
G01X15094Y22850D02*
G01X15094Y23193D01*
G01X14892Y156D02*
G01X14892Y499D01*
G01X14892Y22850D02*
G01X14892Y23193D01*
G01X14690Y156D02*
G01X14690Y499D01*
G01X14690Y22850D02*
G01X14690Y23193D01*
G01X14488Y156D02*
G01X14488Y499D01*
G01X14488Y22850D02*
G01X14488Y23193D01*
G01X14286Y156D02*
G01X14286Y499D01*
G01X14286Y22850D02*
G01X14286Y23193D01*
G01X14084Y156D02*
G01X14084Y499D01*
G01X14084Y22850D02*
G01X14084Y23193D01*
G01X13882Y156D02*
G01X13882Y499D01*
G01X13882Y22850D02*
G01X13882Y23193D01*
G01X13680Y156D02*
G01X13680Y499D01*
G01X13680Y22850D02*
G01X13680Y23193D01*
G01X13478Y156D02*
G01X13478Y499D01*
G01X13478Y22850D02*
G01X13478Y23193D01*
G01X13276Y156D02*
G01X13276Y499D01*
G01X13276Y22850D02*
G01X13276Y23193D01*
G01X13074Y156D02*
G01X13074Y499D01*
G01X13074Y22850D02*
G01X13074Y23193D01*
G01X12872Y156D02*
G01X12872Y499D01*
G01X12872Y22850D02*
G01X12872Y23193D01*
G01X12670Y156D02*
G01X12670Y499D01*
G01X12670Y22850D02*
G01X12670Y23193D01*
G01X12468Y156D02*
G01X12468Y499D01*
G01X12468Y22850D02*
G01X12468Y23193D01*
G01X12266Y156D02*
G01X12266Y499D01*
G01X12266Y22850D02*
G01X12266Y23193D01*
G01X12064Y156D02*
G01X12064Y499D01*
G01X12064Y22850D02*
G01X12064Y23193D01*
G01X11862Y156D02*
G01X11862Y499D01*
G01X11862Y22850D02*
G01X11862Y23193D01*
G01X11660Y156D02*
G01X11660Y499D01*
G01X11660Y22850D02*
G01X11660Y23193D01*
G01X11458Y156D02*
G01X11458Y499D01*
G01X11458Y22850D02*
G01X11458Y23193D01*
G01X11256Y156D02*
G01X11256Y499D01*
G01X11256Y22850D02*
G01X11256Y23193D01*
G01X11054Y156D02*
G01X11054Y499D01*
G01X11054Y22850D02*
G01X11054Y23193D01*
G01X10852Y156D02*
G01X10852Y499D01*
G01X10852Y22850D02*
G01X10852Y23193D01*
G01X10650Y156D02*
G01X10650Y499D01*
G01X10650Y22850D02*
G01X10650Y23193D01*
G01X10448Y156D02*
G01X10448Y499D01*
G01X10448Y22850D02*
G01X10448Y23193D01*
G01X10246Y156D02*
G01X10246Y499D01*
G01X10246Y22850D02*
G01X10246Y23193D01*
G01X10044Y156D02*
G01X10044Y499D01*
G01X10044Y22850D02*
G01X10044Y23193D01*
G01X9842Y156D02*
G01X9842Y499D01*
G01X9842Y22850D02*
G01X9842Y23193D01*
G01X9640Y156D02*
G01X9640Y499D01*
G01X9640Y22850D02*
G01X9640Y23193D01*
G01X9438Y156D02*
G01X9438Y499D01*
G01X9438Y22850D02*
G01X9438Y23193D01*
G01X9236Y156D02*
G01X9236Y499D01*
G01X9236Y22850D02*
G01X9236Y23193D01*
G01X9034Y156D02*
G01X9034Y499D01*
G01X9034Y22850D02*
G01X9034Y23193D01*
G01X8832Y156D02*
G01X8832Y499D01*
G01X8832Y22850D02*
G01X8832Y23193D01*
G01X8630Y156D02*
G01X8630Y499D01*
G01X8630Y22850D02*
G01X8630Y23193D01*
G01X8428Y156D02*
G01X8428Y499D01*
G01X8428Y22850D02*
G01X8428Y23193D01*
G01X8226Y156D02*
G01X8226Y499D01*
G01X8226Y22850D02*
G01X8226Y23193D01*
G01X8024Y156D02*
G01X8024Y499D01*
G01X8024Y22850D02*
G01X8024Y23193D01*
G01X7822Y156D02*
G01X7822Y499D01*
G01X7822Y22850D02*
G01X7822Y23193D01*
G01X7620Y156D02*
G01X7620Y499D01*
G01X7620Y22850D02*
G01X7620Y23193D01*
G01X7418Y156D02*
G01X7418Y499D01*
G01X7418Y22850D02*
G01X7418Y23193D01*
G01X7216Y156D02*
G01X7216Y499D01*
G01X7216Y22850D02*
G01X7216Y23193D01*
G01X7014Y156D02*
G01X7014Y499D01*
G01X7014Y22850D02*
G01X7014Y23193D01*
G01X6812Y156D02*
G01X6812Y499D01*
G01X6812Y22850D02*
G01X6812Y23193D01*
G01X6610Y156D02*
G01X6610Y499D01*
G01X6610Y22850D02*
G01X6610Y23193D01*
G01X6408Y156D02*
G01X6408Y499D01*
G01X6408Y22850D02*
G01X6408Y23193D01*
G01X6206Y156D02*
G01X6206Y499D01*
G01X6206Y22850D02*
G01X6206Y23193D01*
G01X6004Y156D02*
G01X6004Y499D01*
G01X6004Y22850D02*
G01X6004Y23193D01*
G01X5802Y156D02*
G01X5802Y499D01*
G01X5802Y22850D02*
G01X5802Y23193D01*
G01X5600Y156D02*
G01X5600Y499D01*
G01X5600Y22850D02*
G01X5600Y23193D01*
G01X5398Y156D02*
G01X5398Y499D01*
G01X5398Y22850D02*
G01X5398Y23193D01*
G01X5196Y156D02*
G01X5196Y499D01*
G01X5196Y22850D02*
G01X5196Y23193D01*
G01X4994Y156D02*
G01X4994Y499D01*
G01X4994Y22850D02*
G01X4994Y23193D01*
G01X4792Y156D02*
G01X4792Y499D01*
G01X4792Y22850D02*
G01X4792Y23193D01*
G01X4590Y156D02*
G01X4590Y499D01*
G01X4590Y22850D02*
G01X4590Y23193D01*
G01X4388Y156D02*
G01X4388Y499D01*
G01X4388Y22850D02*
G01X4388Y23193D01*
G01X4186Y156D02*
G01X4186Y499D01*
G01X4186Y22850D02*
G01X4186Y23193D01*
G01X3984Y156D02*
G01X3984Y499D01*
G01X3984Y22850D02*
G01X3984Y23193D01*
G01X3782Y156D02*
G01X3782Y499D01*
G01X3782Y22850D02*
G01X3782Y23193D01*
G01X3580Y156D02*
G01X3580Y499D01*
G01X3580Y22850D02*
G01X3580Y23193D01*
G01X3378Y156D02*
G01X3378Y499D01*
G01X3378Y22850D02*
G01X3378Y23193D01*
G01X3176Y156D02*
G01X3176Y499D01*
G01X3176Y22850D02*
G01X3176Y23193D01*
G01X2974Y156D02*
G01X2974Y499D01*
G01X2974Y22850D02*
G01X2974Y23193D01*
G01X2772Y156D02*
G01X2772Y499D01*
G01X2772Y22850D02*
G01X2772Y23193D01*
G01X2570Y156D02*
G01X2570Y499D01*
G01X2570Y22850D02*
G01X2570Y23193D01*
G01X2368Y156D02*
G01X2368Y499D01*
G01X2368Y22850D02*
G01X2368Y23193D01*
G01X2166Y156D02*
G01X2166Y499D01*
G01X2166Y22850D02*
G01X2166Y23193D01*
G01X1964Y156D02*
G01X1964Y499D01*
G01X1964Y22850D02*
G01X1964Y23193D01*
G01X1762Y156D02*
G01X1762Y499D01*
G01X1762Y22850D02*
G01X1762Y23193D01*
G01X1560Y156D02*
G01X1560Y499D01*
G01X1560Y22850D02*
G01X1560Y23193D01*
G01X1358Y156D02*
G01X1358Y499D01*
G01X1358Y22850D02*
G01X1358Y23193D01*
G01X1156Y156D02*
G01X1156Y499D01*
G01X1156Y22850D02*
G01X1156Y23193D01*
G01X954Y156D02*
G01X954Y499D01*
G01X954Y22850D02*
G01X954Y23193D01*
G01X752Y156D02*
G01X752Y499D01*
G01X752Y22850D02*
G01X752Y23193D01*
G01X550Y156D02*
G01X550Y499D01*
G01X550Y11986D02*
G01X550Y23193D01*
G01X348Y156D02*
G01X348Y23193D01*
G01X27965Y9855D02*
G01X26935Y10885D01*
G01X26900Y10900D02*
G01X26631Y10900D01*
G01X26568Y10900D02*
G01X24631Y10900D01*
G01X24568Y10900D02*
G01X23631Y10900D01*
G01X23568Y10900D02*
G01X22901Y10900D01*
G01X22901Y10900D02*
G01X22786Y10908D01*
G01X22786Y10908D02*
G01X23180Y11448D01*
G01X23180Y11448D02*
G01X27952Y11448D01*
G01X27952Y11448D02*
G01X27965Y9855D01*
G01X27829Y9991D02*
G01X27964Y9991D01*
G01X27627Y10193D02*
G01X27962Y10193D01*
G01X27425Y10395D02*
G01X27960Y10395D01*
G01X27223Y10597D02*
G01X27959Y10597D01*
G01X27021Y10799D02*
G01X27957Y10799D01*
G01X22854Y11001D02*
G01X27955Y11001D01*
G01X23001Y11203D02*
G01X27954Y11203D01*
G01X23149Y11405D02*
G01X27952Y11405D01*
G01X27820Y10000D02*
G01X27820Y11448D01*
G01X27618Y10202D02*
G01X27618Y11448D01*
G01X27416Y10404D02*
G01X27416Y11448D01*
G01X27214Y10606D02*
G01X27214Y11448D01*
G01X27012Y10808D02*
G01X27012Y11448D01*
G01X26810Y10900D02*
G01X26810Y11448D01*
G01X26608Y10901D02*
G01X26608Y11448D01*
G01X26406Y10900D02*
G01X26406Y11448D01*
G01X26204Y10900D02*
G01X26204Y11448D01*
G01X26002Y10900D02*
G01X26002Y11448D01*
G01X25800Y10900D02*
G01X25800Y11448D01*
G01X25598Y10900D02*
G01X25598Y11448D01*
G01X25396Y10900D02*
G01X25396Y11448D01*
G01X25194Y10900D02*
G01X25194Y11448D01*
G01X24992Y10900D02*
G01X24992Y11448D01*
G01X24790Y10900D02*
G01X24790Y11448D01*
G01X24588Y10901D02*
G01X24588Y11448D01*
G01X24386Y10900D02*
G01X24386Y11448D01*
G01X24184Y10900D02*
G01X24184Y11448D01*
G01X23982Y10900D02*
G01X23982Y11448D01*
G01X23780Y10900D02*
G01X23780Y11448D01*
G01X23578Y10901D02*
G01X23578Y11448D01*
G01X23376Y10900D02*
G01X23376Y11448D01*
G01X23174Y10900D02*
G01X23174Y11440D01*
G01X22972Y10900D02*
G01X22972Y11164D01*
G01X22021Y10961D02*
G01X21530Y10995D01*
G01X21530Y10995D02*
G01X21993Y11874D01*
G01X21993Y11874D02*
G01X22292Y12321D01*
G01X22292Y12321D02*
G01X22487Y12614D01*
G01X22487Y12614D02*
G01X22666Y12749D01*
G01X22666Y12749D02*
G01X22900Y12749D01*
G01X22900Y12749D02*
G01X23450Y12749D01*
G01X23450Y12749D02*
G01X27954Y12797D01*
G01X27954Y12797D02*
G01X27951Y12101D01*
G01X27951Y12101D02*
G01X23000Y12101D01*
G01X22840Y12023D02*
G01X22021Y10961D01*
G01X21534Y11001D02*
G01X22052Y11001D01*
G01X21640Y11203D02*
G01X22208Y11203D01*
G01X21746Y11405D02*
G01X22364Y11405D01*
G01X21853Y11607D02*
G01X22520Y11607D01*
G01X21959Y11809D02*
G01X22675Y11809D01*
G01X22085Y12011D02*
G01X22831Y12011D01*
G01X22219Y12213D02*
G01X27951Y12213D01*
G01X22354Y12415D02*
G01X27952Y12415D01*
G01X22491Y12617D02*
G01X27953Y12617D01*
G01X27820Y12101D02*
G01X27820Y12795D01*
G01X27618Y12101D02*
G01X27618Y12793D01*
G01X27416Y12101D02*
G01X27416Y12791D01*
G01X27214Y12101D02*
G01X27214Y12789D01*
G01X27012Y12101D02*
G01X27012Y12787D01*
G01X26810Y12101D02*
G01X26810Y12785D01*
G01X26608Y12101D02*
G01X26608Y12783D01*
G01X26406Y12101D02*
G01X26406Y12780D01*
G01X26204Y12101D02*
G01X26204Y12778D01*
G01X26002Y12101D02*
G01X26002Y12776D01*
G01X25800Y12101D02*
G01X25800Y12774D01*
G01X25598Y12101D02*
G01X25598Y12772D01*
G01X25396Y12101D02*
G01X25396Y12770D01*
G01X25194Y12101D02*
G01X25194Y12768D01*
G01X24992Y12101D02*
G01X24992Y12765D01*
G01X24790Y12101D02*
G01X24790Y12763D01*
G01X24588Y12101D02*
G01X24588Y12761D01*
G01X24386Y12101D02*
G01X24386Y12759D01*
G01X24184Y12101D02*
G01X24184Y12757D01*
G01X23982Y12101D02*
G01X23982Y12755D01*
G01X23780Y12101D02*
G01X23780Y12753D01*
G01X23578Y12101D02*
G01X23578Y12750D01*
G01X23376Y12101D02*
G01X23376Y12749D01*
G01X23174Y12101D02*
G01X23174Y12749D01*
G01X22972Y12099D02*
G01X22972Y12749D01*
G01X22770Y11932D02*
G01X22770Y12749D01*
G01X22568Y11671D02*
G01X22568Y12676D01*
G01X22366Y11409D02*
G01X22366Y12434D01*
G01X22164Y11147D02*
G01X22164Y12131D01*
G01X21962Y10965D02*
G01X21962Y11816D01*
G01X21760Y10979D02*
G01X21760Y11432D01*
G01X21558Y10993D02*
G01X21558Y11048D01*
G54D13*
G01X8950Y12350D03*
G01X7850Y12350D03*
G01X6750Y12350D03*
G01X5350Y12350D03*
G01X4250Y12350D03*
G01X3150Y12350D03*
G54D14*
G01X5800Y17850D03*
G01X6600Y17850D03*
G01X6650Y18800D03*
G01X7450Y18800D03*
G54D15*
G01X5100Y7351D03*
G01X5100Y7095D03*
G01X5100Y6839D03*
G01X5100Y6583D03*
G01X5100Y6327D03*
G01X5100Y6071D03*
G01X5100Y5816D03*
G01X5100Y5560D03*
G01X5100Y5304D03*
G01X5100Y5048D03*
G01X7050Y5048D03*
G01X7050Y5304D03*
G01X7050Y5560D03*
G01X7050Y5816D03*
G01X7050Y6071D03*
G01X7050Y6327D03*
G01X7050Y6583D03*
G01X7050Y6839D03*
G01X7050Y7095D03*
G01X7050Y7351D03*
G36*
G01X6416Y13949D02*
G01X5904Y13949D01*
G01X5904Y14067D01*
G01X6416Y14067D01*
G01X6416Y13949D01*
G37*
G36*
G01X6416Y14145D02*
G01X5904Y14145D01*
G01X5904Y14263D01*
G01X6416Y14263D01*
G01X6416Y14145D01*
G37*
G36*
G01X6415Y14343D02*
G01X5904Y14343D01*
G01X5904Y14461D01*
G01X6415Y14461D01*
G01X6415Y14343D01*
G37*
G36*
G01X6416Y14539D02*
G01X5904Y14539D01*
G01X5904Y14657D01*
G01X6416Y14657D01*
G01X6416Y14539D01*
G37*
G36*
G01X6416Y14736D02*
G01X5904Y14736D01*
G01X5904Y14854D01*
G01X6416Y14854D01*
G01X6416Y14736D01*
G37*
G54D16*
G01X4165Y14794D03*
G36*
G01X4421Y14537D02*
G01X3909Y14537D01*
G01X3909Y14655D01*
G01X4421Y14655D01*
G01X4421Y14537D01*
G37*
G36*
G01X4421Y14340D02*
G01X3909Y14340D01*
G01X3909Y14458D01*
G01X4421Y14458D01*
G01X4421Y14340D01*
G37*
G36*
G01X4421Y14143D02*
G01X3909Y14143D01*
G01X3909Y14261D01*
G01X4421Y14261D01*
G01X4421Y14143D01*
G37*
G36*
G01X4421Y13947D02*
G01X3909Y13947D01*
G01X3909Y14065D01*
G01X4421Y14065D01*
G01X4421Y13947D01*
G37*
G54D14*
G01X2750Y15200D03*
G01X3550Y15200D03*
G01X2750Y16000D03*
G01X3550Y16000D03*
G54D10*
G75*
G01X29922Y10007D02*
G03X29823Y9700I428J-307D01*
G01*
G75*
G01X29823Y9700D02*
G03X30148Y9214I527J0D01*
G01*
G75*
G01X30148Y7996D02*
G03X30208Y7854I202J0D01*
G01*
G75*
G01X30468Y7593D02*
G03X30445Y7450I428J-143D01*
G01*
G75*
G01X30445Y7450D02*
G03X30896Y6999I451J0D01*
G01*
G75*
G01X30896Y6999D02*
G03X31348Y7450I0J451D01*
G01*
G75*
G01X31348Y7450D02*
G03X30896Y7901I-452J0D01*
G01*
G75*
G01X30896Y7901D02*
G03X30753Y7878I0J-451D01*
G01*
G75*
G01X30552Y9214D02*
G03X30850Y9535I-202J486D01*
G01*
G75*
G01X30850Y9535D02*
G03X31350Y9174I500J165D01*
G01*
G75*
G01X31350Y9174D02*
G03X31645Y9264I0J526D01*
G01*
G75*
G01X31645Y7825D02*
G03X31445Y7450I251J-375D01*
G01*
G75*
G01X31445Y7450D02*
G03X31896Y6999I451J0D01*
G01*
G75*
G01X31896Y6999D02*
G03X32127Y7062I0J451D01*
G01*
G75*
G01X31808Y6742D02*
G03X31748Y6600I142J-142D01*
G01*
G75*
G01X31748Y3474D02*
G03X31481Y3050I202J-424D01*
G01*
G75*
G01X31481Y3050D02*
G03X31950Y2581I469J0D01*
G01*
G75*
G01X31950Y2581D02*
G03X32419Y3050I0J469D01*
G01*
G75*
G01X32419Y3050D02*
G03X32152Y3474I-469J0D01*
G01*
G75*
G01X32542Y6908D02*
G03X32602Y7050I-142J142D01*
G01*
G75*
G01X32602Y9237D02*
G03X32877Y9700I-252J463D01*
G01*
G75*
G01X32877Y9700D02*
G03X32350Y10226I-527J0D01*
G01*
G75*
G01X32350Y10226D02*
G03X31850Y9865I0J-526D01*
G01*
G75*
G01X31850Y9865D02*
G03X31350Y10226I-500J-165D01*
G01*
G75*
G01X31350Y10226D02*
G03X30850Y9865I0J-526D01*
G01*
G75*
G01X30850Y9865D02*
G03X30350Y10226I-500J-165D01*
G01*
G75*
G01X30350Y10226D02*
G03X30275Y10221I0J-526D01*
G01*
G75*
G01X30604Y11699D02*
G03X30751Y11763I0J201D01*
G01*
G75*
G01X31166Y12207D02*
G03X31350Y12174I184J493D01*
G01*
G75*
G01X31350Y12174D02*
G03X31850Y12535I0J526D01*
G01*
G75*
G01X31850Y12535D02*
G03X32350Y12174I500J165D01*
G01*
G75*
G01X32350Y12174D02*
G03X32850Y12535I0J526D01*
G01*
G75*
G01X32850Y12535D02*
G03X33350Y12174I500J165D01*
G01*
G75*
G01X33350Y12174D02*
G03X33877Y12700I0J526D01*
G01*
G75*
G01X33877Y12700D02*
G03X33552Y13186I-527J0D01*
G01*
G75*
G01X33552Y13400D02*
G03X33492Y13542I-202J0D01*
G01*
G75*
G01X32452Y16100D02*
G03X32392Y16242I-202J0D01*
G01*
G75*
G01X31952Y19206D02*
G03X32269Y19650I-152J444D01*
G01*
G75*
G01X32269Y19650D02*
G03X31800Y20119I-469J0D01*
G01*
G75*
G01X31800Y20119D02*
G03X31331Y19650I0J-469D01*
G01*
G75*
G01X31331Y19650D02*
G03X31548Y19254I469J0D01*
G01*
G75*
G01X31548Y16600D02*
G03X31608Y16458I202J0D01*
G01*
G75*
G01X32048Y15485D02*
G03X31746Y15601I-302J-335D01*
G01*
G75*
G01X31746Y15601D02*
G03X31295Y15150I0J-451D01*
G01*
G75*
G01X31295Y15150D02*
G03X31595Y14725I451J0D01*
G01*
G75*
G01X31595Y13404D02*
G03X31654Y13261I201J0D01*
G01*
G75*
G01X31916Y12999D02*
G03X31850Y12865I434J-299D01*
G01*
G75*
G01X31850Y12865D02*
G03X31552Y13186I-500J-165D01*
G01*
G75*
G01X31552Y14596D02*
G03X31492Y14739I-202J0D01*
G01*
G75*
G01X31185Y15046D02*
G03X31198Y15150I-439J104D01*
G01*
G75*
G01X31198Y15150D02*
G03X30746Y15601I-452J0D01*
G01*
G75*
G01X30746Y15601D02*
G03X30295Y15150I0J-451D01*
G01*
G75*
G01X30295Y15150D02*
G03X30746Y14699I451J0D01*
G01*
G75*
G01X30746Y14699D02*
G03X30925Y14736I0J451D01*
G01*
G75*
G01X31148Y13186D02*
G03X30850Y12865I202J-486D01*
G01*
G75*
G01X30850Y12865D02*
G03X30350Y13226I-500J-165D01*
G01*
G75*
G01X30350Y13226D02*
G03X30265Y13220I0J-526D01*
G01*
G75*
G01X32198Y7785D02*
G03X32048Y7875I-302J-335D01*
G01*
G75*
G01X32048Y9269D02*
G03X32198Y9196I302J431D01*
G01*
G75*
G01X29916Y12999D02*
G03X29823Y12700I434J-299D01*
G01*
G75*
G01X29823Y12700D02*
G03X30350Y12174I527J0D01*
G01*
G75*
G01X30350Y12174D02*
G03X30850Y12535I0J526D01*
G01*
G75*
G01X30850Y12535D02*
G03X30871Y12482I500J165D01*
G01*
G75*
G01X33148Y13186D02*
G03X32850Y12865I202J-486D01*
G01*
G75*
G01X32850Y12865D02*
G03X32350Y13226I-500J-165D01*
G01*
G75*
G01X32350Y13226D02*
G03X32265Y13220I0J-526D01*
G01*
G75*
G01X31998Y14775D02*
G03X32048Y14815I-252J375D01*
G01*
G75*
G01X32048Y14500D02*
G03X32108Y14358I202J0D01*
G01*
G75*
G01X650Y22851D02*
G03X600Y22800I0J-51D01*
G01*
G01*
X500Y550D02*
X500Y550D01*
G75*
G01X499Y550D02*
G03X550Y499I51J0D01*
G01*
G75*
G01X26936Y10886D02*
G03X26900Y10901I-36J-36D01*
G01*
G75*
G01X26632Y10901D02*
G03X26600Y10901I-32J-501D01*
G01*
G75*
G01X26600Y10901D02*
G03X26568Y10901I0J-501D01*
G01*
G75*
G01X24632Y10901D02*
G03X24600Y10901I-32J-501D01*
G01*
G75*
G01X24600Y10901D02*
G03X24568Y10901I0J-501D01*
G01*
G75*
G01X23632Y10901D02*
G03X23600Y10901I-32J-501D01*
G01*
G75*
G01X23600Y10901D02*
G03X23568Y10901I0J-501D01*
G01*
G01*
X23450Y12749D02*
X23450Y12749D01*
G75*
G01X23000Y12101D02*
G03X22840Y12023I0J-201D01*
G01*
G54D17*
G01X26550Y7400D03*
G01X25550Y7400D03*
G01X24550Y7400D03*
G01X23550Y7400D03*
G01X22550Y7400D03*
G01X21550Y7400D03*
G01X20550Y7400D03*
G01X19550Y7400D03*
G01X18550Y7400D03*
G01X17550Y7400D03*
G01X16550Y7400D03*
G01X15550Y7400D03*
G01X14550Y7400D03*
G01X13550Y7400D03*
G01X12550Y7400D03*
G01X26600Y18750D03*
G01X25600Y18750D03*
G01X24600Y18750D03*
G01X23600Y18750D03*
G01X22600Y18750D03*
G01X21600Y18750D03*
G01X20600Y18750D03*
G01X19600Y18750D03*
G01X18600Y18750D03*
G01X17600Y18750D03*
G01X16600Y18750D03*
G01X15600Y18750D03*
G01X14600Y18750D03*
G01X13600Y18750D03*
G01X12600Y18750D03*
G01X1750Y1650D03*
G01X1750Y2650D03*
G01X1750Y3650D03*
G01X1750Y4650D03*
G01X1750Y5650D03*
G01X1750Y6650D03*
G01X1750Y7650D03*
G01X1750Y8650D03*
G01X1750Y9650D03*
G36*
G01X2059Y10959D02*
G01X2059Y10340D01*
G01X1440Y10340D01*
G01X1440Y10959D01*
G01X2059Y10959D01*
G37*
G01X10350Y10700D03*
G01X10350Y9700D03*
G01X10350Y8700D03*
G01X10350Y7700D03*
G01X10350Y6700D03*
G01X10350Y5700D03*
G01X10350Y4700D03*
G01X10350Y3700D03*
G01X10350Y2700D03*
G36*
G01X10039Y1390D02*
G01X10039Y2009D01*
G01X10660Y2009D01*
G01X10660Y1390D01*
G01X10039Y1390D01*
G37*
G36*
G01X26950Y16050D02*
G01X26250Y16050D01*
G01X26250Y16750D01*
G01X26950Y16750D01*
G01X26950Y16050D01*
G37*
G54D20*
G01X25600Y16400D03*
G01X24600Y16400D03*
G01X23600Y16400D03*
G01X22600Y16400D03*
G01X21600Y16400D03*
G01X20600Y16400D03*
G01X19600Y16400D03*
G01X18600Y16400D03*
G01X17600Y16400D03*
G01X16600Y16400D03*
G01X15600Y16400D03*
G01X14600Y16400D03*
G01X13600Y16400D03*
G01X12600Y16400D03*
G01X26600Y10400D03*
G01X25600Y10400D03*
G01X24600Y10400D03*
G01X23600Y10400D03*
G01X22600Y10400D03*
G01X21600Y10400D03*
G01X20600Y10400D03*
G01X19600Y10400D03*
G01X18600Y10400D03*
G01X17600Y10400D03*
G01X16600Y10400D03*
G01X15600Y10400D03*
G01X14600Y10400D03*
G01X13600Y10400D03*
G01X12600Y10400D03*
G54D21*
G01X31800Y19650D03*
G54D22*
G01X33789Y21640D03*
G01X29810Y17659D03*
G01X33789Y17659D03*
G01X29810Y21640D03*
G54D21*
G01X31950Y3050D03*
G54D22*
G01X33939Y5040D03*
G01X29960Y1059D03*
G01X33939Y1059D03*
G01X29960Y5040D03*
G54D23*
G01X31896Y7450D03*
G01X30896Y7450D03*
G01X32904Y7450D03*
G01X31746Y15150D03*
G01X30746Y15150D03*
G01X32753Y15150D03*
G01X21650Y20550D03*
G01X20650Y20550D03*
G01X19650Y20550D03*
G01X18650Y20550D03*
G01X17650Y20550D03*
G01X16650Y20550D03*
G54D24*
G01X15150Y20350D03*
G01X12150Y20350D03*
G01X15150Y21300D03*
G01X12150Y21300D03*
G36*
G01X10639Y18490D02*
G01X10639Y19109D01*
G01X11260Y19109D01*
G01X11260Y18490D01*
G01X10639Y18490D01*
G37*
G54D17*
G01X9950Y18800D03*
G01X10950Y19800D03*
G01X9950Y19800D03*
G01X10950Y20800D03*
G01X9950Y20800D03*
G01X10950Y21800D03*
G01X9950Y21800D03*
G54D25*
G01X30350Y9700D03*
G01X31350Y9700D03*
G01X32350Y9700D03*
G01X33350Y9700D03*
G01X33350Y12700D03*
G01X32350Y12700D03*
G01X31350Y12700D03*
G01X30350Y12700D03*
G36*
G01X1709Y18909D02*
G01X1709Y18290D01*
G01X1090Y18290D01*
G01X1090Y18909D01*
G01X1709Y18909D01*
G37*
G54D17*
G01X2400Y18600D03*
G01X1400Y17600D03*
G01X2400Y17600D03*
G36*
G01X4109Y21709D02*
G01X4109Y21090D01*
G01X3490Y21090D01*
G01X3490Y21709D01*
G01X4109Y21709D01*
G37*
G01X4800Y21400D03*
G01X3800Y20400D03*
G01X4800Y20400D03*
G36*
G01X1709Y21709D02*
G01X1709Y21090D01*
G01X1090Y21090D01*
G01X1090Y21709D01*
G01X1709Y21709D01*
G37*
G01X2400Y21400D03*
G01X1400Y20400D03*
G01X2400Y20400D03*
G54D18*
G01X23600Y20550D03*
G54D17*
G01X24600Y20550D03*
G01X25600Y20550D03*
G01X26600Y20550D03*
G36*
G01X6509Y21709D02*
G01X6509Y21090D01*
G01X5890Y21090D01*
G01X5890Y21709D01*
G01X6509Y21709D01*
G37*
G01X7200Y21400D03*
G01X6200Y20400D03*
G01X7200Y20400D03*
G01X26550Y6400D03*
G01X25550Y6400D03*
G01X24550Y6400D03*
G01X23550Y6400D03*
G01X22550Y6400D03*
G01X21550Y6400D03*
G01X20550Y6400D03*
G01X19550Y6400D03*
G01X18550Y6400D03*
G01X17550Y6400D03*
G01X16550Y6400D03*
G01X15550Y6400D03*
G01X14550Y6400D03*
G01X13550Y6400D03*
G01X12550Y6400D03*
G01X26550Y5450D03*
G01X25550Y5450D03*
G01X24550Y5450D03*
G01X23550Y5450D03*
G01X22550Y5450D03*
G01X21550Y5450D03*
G01X20550Y5450D03*
G01X19550Y5450D03*
G01X18550Y5450D03*
G01X17550Y5450D03*
G01X16550Y5450D03*
G01X15550Y5450D03*
G01X14550Y5450D03*
G01X13550Y5450D03*
G01X12550Y5450D03*
G01X26550Y4450D03*
G01X25550Y4450D03*
G01X24550Y4450D03*
G01X23550Y4450D03*
G01X22550Y4450D03*
G01X21550Y4450D03*
G01X20550Y4450D03*
G01X19550Y4450D03*
G01X18550Y4450D03*
G01X17550Y4450D03*
G01X16550Y4450D03*
G01X15550Y4450D03*
G01X14550Y4450D03*
G01X13550Y4450D03*
G01X12550Y4450D03*
G01X26550Y3450D03*
G01X25550Y3450D03*
G01X24550Y3450D03*
G01X23550Y3450D03*
G01X22550Y3450D03*
G01X21550Y3450D03*
G01X20550Y3450D03*
G01X19550Y3450D03*
G01X18550Y3450D03*
G01X17550Y3450D03*
G01X16550Y3450D03*
G01X15550Y3450D03*
G01X14550Y3450D03*
G01X13550Y3450D03*
G01X12550Y3450D03*
G01X26550Y2450D03*
G01X25550Y2450D03*
G01X24550Y2450D03*
G01X23550Y2450D03*
G01X22550Y2450D03*
G01X21550Y2450D03*
G01X20550Y2450D03*
G01X19550Y2450D03*
G01X18550Y2450D03*
G01X17550Y2450D03*
G01X16550Y2450D03*
G01X15550Y2450D03*
G01X14550Y2450D03*
G01X13550Y2450D03*
G01X12550Y2450D03*
G01X26550Y1450D03*
G01X25550Y1450D03*
G01X24550Y1450D03*
G01X23550Y1450D03*
G01X22550Y1450D03*
G01X21550Y1450D03*
G01X20550Y1450D03*
G01X19550Y1450D03*
G01X18550Y1450D03*
G01X17550Y1450D03*
G01X16550Y1450D03*
G01X15550Y1450D03*
G01X14550Y1450D03*
G01X13550Y1450D03*
G01X12550Y1450D03*
M00*
M02*
